name C:/MyDriveSym/Projects/mobilecap/Data\Session20210820_0001\mocap\ForceDataProcessed\DJ1_forces.mot
datacolumns 28
datarows 8
range 2.16700000 2.17050000
endheader 
time	R_ground_force_vx	R_ground_force_vy	R_ground_force_vz	R_ground_force_px	R_ground_force_py	R_ground_force_pz	R_ground_torque_x	R_ground_torque_y	R_ground_torque_z	L_ground_force_vx	L_ground_force_vy	L_ground_force_vz	L_ground_force_px	L_ground_force_py	L_ground_force_pz	L_ground_torque_x	L_ground_torque_y	L_ground_torque_z	3_ground_force_vx	3_ground_force_vy	3_ground_force_vz	3_ground_force_px	3_ground_force_py	3_ground_force_pz	3_ground_torque_x	3_ground_torque_y	3_ground_torque_z	
          2.16700000	       -116.68189300	       1025.59508400	        -97.53681200	         -0.14733100	          0.00600000	         -0.43474900	          0.00000000	         -0.87787300	          0.00000000	        -99.39024900	        932.23303000	        113.10782400	         -0.15711300	          0.00600000	         -0.73903700	          0.00000000	          3.63350100	          0.00000000	          0.00000000	          0.00000000	          0.00000000	          0.00000000	          0.00000000	          0.00000000	          0.00000000	          0.00000000	          0.00000000	
          2.16750000	       -117.21978400	       1025.65226200	        -97.48606100	         -0.14700500	          0.00600000	         -0.43471900	          0.00000000	         -0.87409700	          0.00000000	       -100.05333600	        932.29534300	        113.10741100	         -0.15684700	          0.00600000	         -0.73909200	          0.00000000	          3.63443400	          0.00000000	          0.00000000	          0.00000000	          0.00000000	          0.00000000	          0.00000000	          0.00000000	          0.00000000	          0.00000000	          0.00000000	
          2.16800000	       -117.75121900	       1025.70417000	        -97.42424700	         -0.14668300	          0.00600000	         -0.43468900	          0.00000000	         -0.87055800	          0.00000000	       -100.71999200	        932.34057700	        113.09710400	         -0.15658200	          0.00600000	         -0.73914600	          0.00000000	          3.63608200	          0.00000000	          0.00000000	          0.00000000	          0.00000000	          0.00000000	          0.00000000	          0.00000000	          0.00000000	          0.00000000	          0.00000000	
          2.16850000	       -118.27604300	       1025.75027000	        -97.35131800	         -0.14636500	          0.00600000	         -0.43466000	          0.00000000	         -0.86723300	          0.00000000	       -101.38970400	        932.36836000	        113.07665200	         -0.15631800	          0.00600000	         -0.73920000	          0.00000000	          3.63841500	          0.00000000	          0.00000000	          0.00000000	          0.00000000	          0.00000000	          0.00000000	          0.00000000	          0.00000000	          0.00000000	          0.00000000	
          2.16900000	       -118.79410400	       1025.78995600	        -97.26722400	         -0.14605000	          0.00600000	         -0.43463300	          0.00000000	         -0.86409900	          0.00000000	       -102.06191500	        932.37831900	        113.04578200	         -0.15605400	          0.00600000	         -0.73925300	          0.00000000	          3.64140100	          0.00000000	          0.00000000	          0.00000000	          0.00000000	          0.00000000	          0.00000000	          0.00000000	          0.00000000	          0.00000000	          0.00000000	
          2.16950000	       -119.30525500	       1025.82254600	        -97.17192900	         -0.14573900	          0.00600000	         -0.43460600	          0.00000000	         -0.86113800	          0.00000000	       -102.73601800	        932.37006200	        113.00421700	         -0.15579000	          0.00600000	         -0.73930500	          0.00000000	          3.64500100	          0.00000000	          0.00000000	          0.00000000	          0.00000000	          0.00000000	          0.00000000	          0.00000000	          0.00000000	          0.00000000	          0.00000000	
          2.17000000	       -119.80936800	       1025.84727200	        -97.06542500	         -0.14543200	          0.00600000	         -0.43458100	          0.00000000	         -0.85833000	          0.00000000	       -103.41136800	        932.34318600	        112.95169000	         -0.15552700	          0.00600000	         -0.73935600	          0.00000000	          3.64918100	          0.00000000	          0.00000000	          0.00000000	          0.00000000	          0.00000000	          0.00000000	          0.00000000	          0.00000000	          0.00000000	          0.00000000	
          2.17050000	       -120.30635100	       1025.86327100	        -96.94773900	         -0.14512800	          0.00600000	         -0.43455600	          0.00000000	         -0.85565600	          0.00000000	       -104.08730100	        932.29728800	        112.88795400	         -0.15526500	          0.00600000	         -0.73940600	          0.00000000	          3.65390300	          0.00000000	          0.00000000	          0.00000000	          0.00000000	          0.00000000	          0.00000000	          0.00000000	          0.00000000	          0.00000000	          0.00000000	
